{"asset":{"version":"2.0","generator":"VECTARY"},"nodes":[{"translation":[-0.04741679049397432,0.011270495147828406,-0.00007520790139839484],"scale":[0.000508744734074509,0.0005087447340745091,0.00045791308403510337],"rotation":[-0.5690400671096024,-0.17452425115661607,0.6309036011463193,0.49768999773225064],"name":"Cone 2","mesh":0},{"translation":[0.011595478079972282,0.024763402879039567,0.027731235698843757],"scale":[0.0004579130840351034,0.0004579130840351034,0.00045791308403510337],"rotation":[-0.29645992849287595,0.2518964222346865,-0.08138089256132397,0.917625660925677],"name":"Cone","mesh":1},{"translation":[0.015679409515957497,-0.006589941306885005,0.028727528650268765],"scale":[0.00014799116060233553,0.0001479911606023355,0.0001479911606023355],"rotation":[-0.3491721425513192,0.11665549749310256,-0.8818554554688826,-0.29462054482083844],"name":"Cone 3","mesh":2},{"translation":[-0.0287758637077065,-0.004644593144878614,0.009021222408828808],"scale":[0.0002574485591063533,0.0002574485591063532,0.0002574485591063533],"rotation":[0.13414457667992277,0.7926117479356292,-0.564136241830609,-0.18847320826851666],"name":"Cone 1","mesh":3},{"translation":[-0.11136421156135284,0.0009012795932455298,0.02773979490455838],"scale":[0.001,0.001,0.001],"rotation":[0,-0.7071067811865475,0,0.7071067811865476],"name":"Point Light","extensions":{"KHR_lights_punctual":{"light":0}}},{"translation":[-0.014711368844308879,0.0034467871391101433,-0.0049348069604436395],"scale":[0.0005,0.0005,0.0005],"rotation":[-0.7071067811865475,0,0,0.7071067811865476],"name":"3D Text 1 - a","mesh":4},{"translation":[-0.0006928141568088791,0.0034467871391101433,-0.0049348069604436395],"scale":[0.0005,0.0005,0.0005],"rotation":[-0.7071067811865475,0,0,0.7071067811865476],"name":"3D Text 1 - t","mesh":5},{"translation":[0.009656306936941122,0.0034467871391101433,-0.0049348069604436395],"scale":[0.0005,0.0005,0.0005],"rotation":[-0.7071067811865475,0,0,0.7071067811865476],"name":"3D Text 1 - e","mesh":6},{"translation":[0.02356499834319112,0.0034467871391101433,-0.0049348069604436395],"scale":[0.0005,0.0005,0.0005],"rotation":[-0.7071067811865475,0,0,0.7071067811865476],"name":"3D Text 1 - w","mesh":7},{"translation":[0.044043513968191124,0.0034467871391101433,-0.0049348069604436395],"scale":[0.0005,0.0005,0.0005],"rotation":[-0.7071067811865475,0,0,0.7071067811865476],"name":"3D Text 1 - a","mesh":8},{"translation":[0.05806206865569112,0.0034467871391101433,-0.0049348069604436395],"scale":[0.0005,0.0005,0.0005],"rotation":[-0.7071067811865475,0,0,0.7071067811865476],"name":"3D Text 1 - y","mesh":9},{"translation":[-0.04420070377574851,0.004041183376164699,-0.01707107049898116],"scale":[0.001,0.001,0.001],"rotation":[-0.7071067811865475,0,0,0.7071067811865476],"name":"3D Text - G","mesh":10}],"materials":[{"pbrMetallicRoughness":{"baseColorFactor":[1,1,1,0.52],"metallicFactor":0,"roughnessFactor":0},"name":"Clear Glass 1","emissiveFactor":[0,0,0],"alphaMode":"BLEND","doubleSided":false},{"pbrMetallicRoughness":{"baseColorFactor":[1,1,1,0.63],"metallicFactor":0.38,"roughnessFactor":0},"name":"Clear Glass","emissiveFactor":[0,0,0],"alphaMode":"BLEND","doubleSided":false},{"pbrMetallicRoughness":{"baseColorFactor":[1,1,1,1],"metallicFactor":0,"roughnessFactor":0.31},"name":"Blue","emissiveFactor":[0,0,0],"alphaMode":"OPAQUE","doubleSided":false},{"pbrMetallicRoughness":{"baseColorFactor":[1,1,1,1],"metallicFactor":0,"roughnessFactor":0.49},"name":"Wax","emissiveFactor":[0,0,0],"alphaMode":"OPAQUE","doubleSided":false}],"meshes":[{"primitives":[{"mode":4,"attributes":{"POSITION":1,"NORMAL":2,"TEXCOORD_0":3},"material":0,"indices":0}]},{"primitives":[{"mode":4,"attributes":{"POSITION":5,"NORMAL":6,"TEXCOORD_0":7},"material":1,"indices":4}]},{"primitives":[{"mode":4,"attributes":{"POSITION":9,"NORMAL":10,"TEXCOORD_0":11},"material":1,"indices":8}]},{"primitives":[{"mode":4,"attributes":{"POSITION":13,"NORMAL":14,"TEXCOORD_0":15},"material":1,"indices":12}]},{"primitives":[{"mode":4,"attributes":{"POSITION":17,"NORMAL":18,"TEXCOORD_0":19},"material":2,"indices":16}]},{"primitives":[{"mode":4,"attributes":{"POSITION":21,"NORMAL":22,"TEXCOORD_0":23},"material":2,"indices":20}]},{"primitives":[{"mode":4,"attributes":{"POSITION":25,"NORMAL":26,"TEXCOORD_0":27},"material":2,"indices":24}]},{"primitives":[{"mode":4,"attributes":{"POSITION":29,"NORMAL":30,"TEXCOORD_0":31},"material":2,"indices":28}]},{"primitives":[{"mode":4,"attributes":{"POSITION":17,"NORMAL":18,"TEXCOORD_0":19},"material":2,"indices":16}]},{"primitives":[{"mode":4,"attributes":{"POSITION":33,"NORMAL":34,"TEXCOORD_0":35},"material":2,"indices":32}]},{"primitives":[{"mode":4,"attributes":{"POSITION":37,"NORMAL":38,"TEXCOORD_0":39},"material":3,"indices":36}]}],"accessors":[{"bufferView":0,"byteOffset":0,"componentType":5125,"count":2964,"type":"SCALAR"},{"bufferView":1,"byteOffset":0,"componentType":5126,"count":533,"max":[26.331193923950195,26.241260528564453,60.20889663696289],"min":[-26.331193923950195,-26.241260528564453,0],"type":"VEC3"},{"bufferView":2,"byteOffset":0,"componentType":5126,"count":533,"type":"VEC3"},{"bufferView":3,"byteOffset":0,"componentType":5126,"count":533,"type":"VEC2"},{"bufferView":4,"byteOffset":0,"componentType":5125,"count":2964,"type":"SCALAR"},{"bufferView":5,"byteOffset":0,"componentType":5126,"count":533,"max":[26.331193923950195,26.241260528564453,60.20889663696289],"min":[-26.331193923950195,-26.241260528564453,0],"type":"VEC3"},{"bufferView":6,"byteOffset":0,"componentType":5126,"count":533,"type":"VEC3"},{"bufferView":7,"byteOffset":0,"componentType":5126,"count":533,"type":"VEC2"},{"bufferView":8,"byteOffset":0,"componentType":5125,"count":2964,"type":"SCALAR"},{"bufferView":9,"byteOffset":0,"componentType":5126,"count":533,"max":[12.83808422088623,12.794236183166504,60.37085723876953],"min":[-12.83808422088623,-12.794236183166504,0],"type":"VEC3"},{"bufferView":10,"byteOffset":0,"componentType":5126,"count":533,"type":"VEC3"},{"bufferView":11,"byteOffset":0,"componentType":5126,"count":533,"type":"VEC2"},{"bufferView":12,"byteOffset":0,"componentType":5125,"count":2964,"type":"SCALAR"},{"bufferView":13,"byteOffset":0,"componentType":5126,"count":533,"max":[12.83808422088623,12.794236183166504,60.37085723876953],"min":[-12.83808422088623,-12.794236183166504,0],"type":"VEC3"},{"bufferView":14,"byteOffset":0,"componentType":5126,"count":533,"type":"VEC3"},{"bufferView":15,"byteOffset":0,"componentType":5126,"count":533,"type":"VEC2"},{"bufferView":16,"byteOffset":0,"componentType":5125,"count":1428,"type":"SCALAR"},{"bufferView":17,"byteOffset":0,"componentType":5126,"count":951,"max":[27.9541015625,1.7236544494220879e-15,28.1494140625],"min":[1.806640625,-15,-0.48828125],"type":"VEC3"},{"bufferView":18,"byteOffset":0,"componentType":5126,"count":951,"type":"VEC3"},{"bufferView":19,"byteOffset":0,"componentType":5126,"count":951,"type":"VEC2"},{"bufferView":20,"byteOffset":0,"componentType":5125,"count":672,"type":"SCALAR"},{"bufferView":21,"byteOffset":0,"componentType":5126,"count":446,"max":[21.4599609375,2.033105019449001e-15,33.203125],"min":[1.2939453125,-15,-0.48828125],"type":"VEC3"},{"bufferView":22,"byteOffset":0,"componentType":5126,"count":446,"type":"VEC3"},{"bufferView":23,"byteOffset":0,"componentType":5126,"count":446,"type":"VEC2"},{"bufferView":24,"byteOffset":0,"componentType":5125,"count":1248,"type":"SCALAR"},{"bufferView":25,"byteOffset":0,"componentType":5126,"count":834,"max":[28.80859375,1.7236544494220879e-15,28.1494140625],"min":[2.099609375,-15,-0.48828125],"type":"VEC3"},{"bufferView":26,"byteOffset":0,"componentType":5126,"count":834,"type":"VEC3"},{"bufferView":27,"byteOffset":0,"componentType":5126,"count":834,"type":"VEC2"},{"bufferView":28,"byteOffset":0,"componentType":5125,"count":1440,"type":"SCALAR"},{"bufferView":29,"byteOffset":0,"componentType":5126,"count":962,"max":[44.8974609375,1.6937558804499056e-15,27.6611328125],"min":[0.6103515625,-15,0],"type":"VEC3"},{"bufferView":30,"byteOffset":0,"componentType":5126,"count":962,"type":"VEC3"},{"bufferView":31,"byteOffset":0,"componentType":5126,"count":962,"type":"VEC2"},{"bufferView":32,"byteOffset":0,"componentType":5125,"count":996,"type":"SCALAR"},{"bufferView":33,"byteOffset":0,"componentType":5126,"count":664,"max":[30.4931640625,1.6937558804499056e-15,27.6611328125],"min":[-0.048828125,-15,-12.01171875],"type":"VEC3"},{"bufferView":34,"byteOffset":0,"componentType":5126,"count":664,"type":"VEC3"},{"bufferView":35,"byteOffset":0,"componentType":5126,"count":664,"type":"VEC2"},{"bufferView":36,"byteOffset":0,"componentType":5125,"count":1260,"type":"SCALAR"},{"bufferView":37,"byteOffset":0,"componentType":5126,"count":840,"max":[33.59375,2.216981472737806e-15,36.2060546875],"min":[2.5390625,-15,-0.48828125],"type":"VEC3"},{"bufferView":38,"byteOffset":0,"componentType":5126,"count":840,"type":"VEC3"},{"bufferView":39,"byteOffset":0,"componentType":5126,"count":840,"type":"VEC2"}],"bufferViews":[{"buffer":0,"byteOffset":0,"byteLength":11856,"target":34963},{"buffer":0,"byteOffset":11856,"byteLength":6396,"target":34962},{"buffer":0,"byteOffset":18252,"byteLength":6396,"target":34962},{"buffer":0,"byteOffset":24648,"byteLength":4264,"target":34962},{"buffer":0,"byteOffset":28912,"byteLength":11856,"target":34963},{"buffer":0,"byteOffset":40768,"byteLength":6396,"target":34962},{"buffer":0,"byteOffset":47164,"byteLength":6396,"target":34962},{"buffer":0,"byteOffset":53560,"byteLength":4264,"target":34962},{"buffer":0,"byteOffset":57824,"byteLength":11856,"target":34963},{"buffer":0,"byteOffset":69680,"byteLength":6396,"target":34962},{"buffer":0,"byteOffset":76076,"byteLength":6396,"target":34962},{"buffer":0,"byteOffset":82472,"byteLength":4264,"target":34962},{"buffer":0,"byteOffset":86736,"byteLength":11856,"target":34963},{"buffer":0,"byteOffset":98592,"byteLength":6396,"target":34962},{"buffer":0,"byteOffset":104988,"byteLength":6396,"target":34962},{"buffer":0,"byteOffset":111384,"byteLength":4264,"target":34962},{"buffer":0,"byteOffset":115648,"byteLength":5712,"target":34963},{"buffer":0,"byteOffset":121360,"byteLength":11412,"target":34962},{"buffer":0,"byteOffset":132772,"byteLength":11412,"target":34962},{"buffer":0,"byteOffset":144184,"byteLength":7608,"target":34962},{"buffer":0,"byteOffset":151792,"byteLength":2688,"target":34963},{"buffer":0,"byteOffset":154480,"byteLength":5352,"target":34962},{"buffer":0,"byteOffset":159832,"byteLength":5352,"target":34962},{"buffer":0,"byteOffset":165184,"byteLength":3568,"target":34962},{"buffer":0,"byteOffset":168752,"byteLength":4992,"target":34963},{"buffer":0,"byteOffset":173744,"byteLength":10008,"target":34962},{"buffer":0,"byteOffset":183752,"byteLength":10008,"target":34962},{"buffer":0,"byteOffset":193760,"byteLength":6672,"target":34962},{"buffer":0,"byteOffset":200432,"byteLength":5760,"target":34963},{"buffer":0,"byteOffset":206192,"byteLength":11544,"target":34962},{"buffer":0,"byteOffset":217736,"byteLength":11544,"target":34962},{"buffer":0,"byteOffset":229280,"byteLength":7696,"target":34962},{"buffer":0,"byteOffset":236976,"byteLength":3984,"target":34963},{"buffer":0,"byteOffset":240960,"byteLength":7968,"target":34962},{"buffer":0,"byteOffset":248928,"byteLength":7968,"target":34962},{"buffer":0,"byteOffset":256896,"byteLength":5312,"target":34962},{"buffer":0,"byteOffset":262208,"byteLength":5040,"target":34963},{"buffer":0,"byteOffset":267248,"byteLength":10080,"target":34962},{"buffer":0,"byteOffset":277328,"byteLength":10080,"target":34962},{"buffer":0,"byteOffset":287408,"byteLength":6720,"target":34962}],"extensions":{"KHR_lights_punctual":{"lights":[{"name":"Point Light","type":"point","intensity":2,"range":10000,"color":[0.16862745098039217,0,1]}]}},"scene":0,"scenes":[{"nodes":[0,1,2,3,4,5,6,7,8,9,10,11],"name":"Project Name"}],"extensionsUsed":["KHR_texture_transform","KHR_lights_punctual"],"extensionsRequired":["KHR_lights_punctual"],"buffers":[{"byteLength":294128,"uri":"ProjectName.bin"}]}